<?xml version="1.0" encoding="iso-8859-1"?>
<!-- Generator: Adobe Illustrator 18.1.1, SVG Export Plug-In . SVG Version: 6.00 Build 0)  -->
<svg xmlns="http://www.w3.org/2000/svg" xmlns:xlink="http://www.w3.org/1999/xlink" version="1.1" id="Capa_1" x="0px" y="0px" viewBox="0 0 34.398 34.398" style="enable-background:new 0 0 34.398 34.398;" xml:space="preserve" width="512px" height="512px">
<g>
	<g id="c28_geolocalization">
		<path d="M17.202,0C10.749,0,5.515,5.197,5.515,11.607c0,3.281,3.218,9.156,3.218,9.156l8.039,13.635l8.386-13.477    c0,0,3.726-5.605,3.726-9.314C28.883,5.197,23.653,0,17.202,0z M17.147,18.002c-3.695,0-6.688-2.994-6.688-6.693    c0-3.693,2.993-6.686,6.688-6.686c3.693,0,6.69,2.992,6.69,6.686C23.837,15.008,20.84,18.002,17.147,18.002z" fill="#D80027"/>
		<polygon points="18.539,7.233 15.898,7.233 15.898,10.242 12.823,10.242 12.823,12.887 15.898,12.887 15.898,15.985     18.539,15.985 18.539,12.887 21.576,12.887 21.576,10.242 18.539,10.242   " fill="#D80027"/>
	</g>
	<g id="Capa_1_146_">
	</g>
</g>
<g>
</g>
<g>
</g>
<g>
</g>
<g>
</g>
<g>
</g>
<g>
</g>
<g>
</g>
<g>
</g>
<g>
</g>
<g>
</g>
<g>
</g>
<g>
</g>
<g>
</g>
<g>
</g>
<g>
</g>
</svg>
